<svg id="Layer_1" data-name="Layer 1" xmlns="http://www.w3.org/2000/svg" viewBox="0 0 297.8 108.63"><defs><style>.cls-1{fill:#f1f2f2;}</style></defs><title>Logo GPA_blanco</title><path class="cls-1" d="M279.48,65.36A8.16,8.16,0,0,0,267.94,76.9l24,24-24,24a8.16,8.16,0,1,0,11.54,11.55L301.94,114l0-26.21Z" transform="translate(-45.44 -55.63)"/><path class="cls-1" d="M340.86,124.92l-24-24,24-24a8.16,8.16,0,0,0,0-11.54,8.16,8.16,0,0,0-11.54,0L306.54,88.13l0,25.58,22.75,22.75a8.16,8.16,0,1,0,11.55-11.54Z" transform="translate(-45.44 -55.63)"/><path class="cls-1" d="M295.73,64.47a9,9,0,0,1,2.35-6.27,10.14,10.14,0,0,1,13.49,0,9.55,9.55,0,0,1,0,12.55,10.14,10.14,0,0,1-13.49,0A9,9,0,0,1,295.73,64.47Z" transform="translate(-45.44 -55.63)"/><path class="cls-1" d="M219.21,65.66a58.15,58.15,0,0,0-19.62,3.12v11.4a69.32,69.32,0,0,1,14.55-1.64c11.76,0,14.8,2.24,14.8,10.91v4.71L213.21,96c-14.37,1.87-21.65,8.7-21.65,20.3,0,12.39,8.1,19.79,21.66,19.79,9.19,0,14.37-3.16,17.22-6.17l1.05,5H244V86.23C244,72.77,235.44,65.66,219.21,65.66ZM228.94,121c-2.59,2.17-7.57,3.66-12.33,3.66-4.5,0-9.85-1.54-9.85-8.85,0-6,2.68-8.61,9.57-9.36l12.61-1.3Z" transform="translate(-45.44 -55.63)"/><path class="cls-1" d="M156.57,65.75a29.93,29.93,0,0,0-15,3.74v9.9a27.62,27.62,0,0,1,9.82-1.77c10.33,0,15.94,4.68,15.94,20.72V101c0,15.79-6,21.1-16.45,21.1-5.74,0-10.72-1.77-13.27-3.79V81.41l0,0v-9l0,0h0V66.89H122.9v83.86h14.66V129.4a30.58,30.58,0,0,0,15.31,3.66c17.85,0,29.72-9.59,29.72-34V97.45C182.59,73.58,170.21,65.75,156.57,65.75Z" transform="translate(-45.44 -55.63)"/><path class="cls-1" d="M105.14,130.89V67.09H91v5.56h-.51c-4-3.92-10.72-6.69-19-6.69-13.64,0-26,7.83-26,31.69V99.3c0,24.37,11.87,34,29.72,34a30.56,30.56,0,0,0,15.31-3.67v5.5a24.85,24.85,0,0,1-1.23,6,15.16,15.16,0,0,1-3.72,6.06,12.32,12.32,0,0,1-5.57,3,32.77,32.77,0,0,1-7.77.86A46.46,46.46,0,0,1,61,149.7a35.94,35.94,0,0,1-8.32-3.42l-1.7-1v14.25a50.16,50.16,0,0,0,7.69,2.83,60.21,60.21,0,0,0,15.11,1.89,42.35,42.35,0,0,0,12.46-1.77,25.47,25.47,0,0,0,10.13-5.9,27,27,0,0,0,6.57-10.46,45.3,45.3,0,0,0,2.28-15.24ZM90.47,118.5c-2.55,2-7.53,3.78-13.27,3.78-10.46,0-16.45-5.3-16.45-21.09V98.54c0-16,5.61-20.71,15.94-20.71a25.29,25.29,0,0,1,13.78,3.78Z" transform="translate(-45.44 -55.63)"/></svg>