<svg xmlns="http://www.w3.org/2000/svg" width="254.233" height="85" viewBox="0 0 254.233 85">
  <g id="Group_972" data-name="Group 972" transform="translate(-57.444 -55.63)">
    <path id="Path_2144" data-name="Path 2144" d="M363.415,128.01a5.6,5.6,0,1,1-5.581-5.4A5.45,5.45,0,0,1,363.415,128.01Zm-9.8,0a4.2,4.2,0,0,0,4.253,4.309,4.15,4.15,0,0,0,4.152-4.278,4.2,4.2,0,1,0-8.406-.031Zm3.357,2.828h-1.264v-5.4a11.254,11.254,0,0,1,2.093-.164,3.4,3.4,0,0,1,1.893.4,1.485,1.485,0,0,1,.534,1.185,1.385,1.385,0,0,1-1.13,1.249v.066a1.6,1.6,0,0,1,1,1.315,4.112,4.112,0,0,0,.4,1.35h-1.362a4.681,4.681,0,0,1-.43-1.315c-.1-.592-.432-.855-1.13-.855h-.6ZM357,127.78h.6c.7,0,1.262-.232,1.262-.79,0-.495-.366-.822-1.164-.822a3.165,3.165,0,0,0-.7.064Z" transform="translate(-51.738 -14.572)" fill="#fc9200"/>
    <g id="Group_883" data-name="Group 883" transform="translate(12)">
      <g id="Group_92" data-name="Group 92" transform="translate(217.662 55.63)">
        <g id="Group_90" data-name="Group 90" transform="translate(0 5.742)">
          <g id="Group_89" data-name="Group 89">
            <path id="Path_2141" data-name="Path 2141" d="M276.448,64.837a6.386,6.386,0,1,0-9.031,9.032L286.2,92.655l-18.786,18.784a6.386,6.386,0,1,0,9.032,9.032L294.023,102.9,294,82.392Z" transform="translate(-265.545 -62.969)" fill="#fc9200"/>
            <path id="Path_2142" data-name="Path 2142" d="M333.392,111.439,314.609,92.656l18.784-18.787a6.387,6.387,0,0,0-9.033-9.032l-17.816,17.82.016,20.011,17.8,17.8a6.386,6.386,0,0,0,9.033-9.031Z" transform="translate(-274.464 -62.969)" fill="#fc9200"/>
          </g>
        </g>
        <g id="Group_91" data-name="Group 91" transform="translate(23.618)">
          <path id="Path_2143" data-name="Path 2143" d="M295.73,62.551a7.016,7.016,0,0,1,1.84-4.909,7.923,7.923,0,0,1,10.551,0,7.467,7.467,0,0,1,0,9.817,7.923,7.923,0,0,1-10.551,0A7.01,7.01,0,0,1,295.73,62.551Z" transform="translate(-295.73 -55.63)" fill="#fc9200"/>
        </g>
      </g>
      <g id="Group_95" data-name="Group 95" transform="translate(106.046 63.551)">
        <path id="Path_2146" data-name="Path 2146" d="M149.243,65.753a23.456,23.456,0,0,0-11.776,2.921v7.753a21.593,21.593,0,0,1,7.683-1.386c8.085,0,12.475,3.657,12.475,16.206V93.32c0,12.353-4.688,16.5-12.873,16.5-4.49,0-8.385-1.383-10.378-2.964V78.005a.282.282,0,0,1,.027-.016V70.966a.208.208,0,0,0-.027.024h.016V66.642H122.9v65.614h11.478v-16.7a23.909,23.909,0,0,0,11.973,2.866c13.972,0,23.254-7.511,23.254-26.581V90.554C169.6,71.88,159.92,65.753,149.243,65.753Z" transform="translate(-122.896 -65.753)" fill="#fff"/>
      </g>
      <g id="Group_96" data-name="Group 96" transform="translate(45.444 63.711)">
        <path id="Path_2147" data-name="Path 2147" d="M92.149,116.764V66.847H81.071v4.347h-.4C77.579,68.13,72.29,65.958,65.8,65.958c-10.679,0-20.359,6.126-20.359,24.8v1.286c0,19.071,9.282,26.581,23.253,26.581a23.9,23.9,0,0,0,11.975-2.866v4.3a19.578,19.578,0,0,1-.959,4.7,11.872,11.872,0,0,1-2.908,4.739,9.637,9.637,0,0,1-4.361,2.336,25.465,25.465,0,0,1-6.083.675,36.449,36.449,0,0,1-8.762-1.022,28.267,28.267,0,0,1-6.508-2.679l-1.331-.774v11.151a39.057,39.057,0,0,0,6.02,2.212A46.815,46.815,0,0,0,67.6,142.877a33.016,33.016,0,0,0,9.753-1.389,19.9,19.9,0,0,0,7.921-4.611,21.175,21.175,0,0,0,5.141-8.191A35.349,35.349,0,0,0,92.2,116.767Zm-11.478-9.7c-1.994,1.578-5.887,2.962-10.377,2.962-8.185,0-12.876-4.15-12.876-16.5V91.452c0-12.551,4.392-16.205,12.476-16.205a19.713,19.713,0,0,1,10.777,2.962Z" transform="translate(-45.444 -65.958)" fill="#fff"/>
      </g>
      <g id="Group_94" data-name="Group 94" transform="translate(159.769 63.48)">
        <path id="Path_2145" data-name="Path 2145" d="M213.2,65.663A45.456,45.456,0,0,0,197.845,68.1v8.917a54.118,54.118,0,0,1,11.379-1.281c9.2,0,11.586,1.754,11.586,8.533v3.685L208.5,89.387c-11.245,1.46-16.946,6.8-16.946,15.879,0,9.694,6.339,15.484,16.953,15.484,7.188,0,11.241-2.473,13.468-4.824l.826,3.916h9.8V81.752C232.6,71.227,225.89,65.663,213.2,65.663Zm7.612,43.259c-2.031,1.7-5.922,2.861-9.65,2.861-3.519,0-7.711-1.2-7.711-6.92,0-4.682,2.1-6.736,7.492-7.328l9.869-1.014Z" transform="translate(-191.556 -65.663)" fill="#fff"/>
      </g>
    </g>
  </g>
</svg>
